<svg id="visual" viewBox="0 0 1920 8000" width="1920" height="8000" xmlns="http://www.w3.org/2000/svg" xmlns:xlink="http://www.w3.org/1999/xlink" version="1.1"><g><g transform="translate(1079 2640)"><path d="M89.8 -103.8C114.7 -86.2 131.9 -56.2 138.6 -23.7C145.3 8.9 141.3 44.1 124.2 69.7C107 95.2 76.6 111.1 45.5 120.4C14.4 129.7 -17.4 132.4 -48.3 124.6C-79.3 116.9 -109.5 98.8 -128.4 71.5C-147.4 44.2 -155.2 7.7 -149.8 -27C-144.4 -61.8 -125.8 -94.8 -98.7 -112C-71.5 -129.2 -35.8 -130.6 -1.6 -128.7C32.5 -126.7 65 -121.4 89.8 -103.8Z" fill="none" stroke="#000000" stroke-width="5"></path></g><g transform="translate(1026 1576)"><path d="M71.3 -82.8C92.6 -67.1 110.3 -44.8 114.9 -20C119.5 4.7 111.1 32 96.8 55C82.5 78 62.3 96.8 38.4 105.4C14.5 114.1 -13 112.7 -39.3 104.6C-65.5 96.5 -90.5 81.5 -106.5 59C-122.5 36.4 -129.7 6.1 -123.8 -20.9C-118 -48 -99.2 -71.9 -76.4 -87.3C-53.6 -102.7 -26.8 -109.7 -0.9 -108.6C25 -107.6 50 -98.4 71.3 -82.8Z" fill="none" stroke="#000000" stroke-width="5"></path></g><g transform="translate(1457 4560)"><path d="M85.5 -99.6C110.5 -80.9 130.4 -53.7 136.2 -23.6C142.1 6.6 133.9 39.6 117.3 67C100.6 94.5 75.4 116.3 46.7 125.5C18 134.8 -14.3 131.5 -44 120.7C-73.6 110 -100.5 91.8 -113.9 66.7C-127.3 41.6 -127.1 9.6 -119.9 -19.4C-112.7 -48.5 -98.6 -74.6 -77.5 -94C-56.3 -113.5 -28.2 -126.3 1 -127.6C30.2 -128.8 60.4 -118.4 85.5 -99.6Z" fill="none" stroke="#000000" stroke-width="5"></path></g><g transform="translate(1710 122)"><path d="M64.4 -81.3C80.5 -63.1 88.7 -40.1 92.8 -16.5C96.8 7.2 96.6 31.4 86.4 50.7C76.2 69.9 56 84.1 34 90.9C12.1 97.8 -11.6 97.4 -36 91.6C-60.4 85.9 -85.6 75 -100.1 55.2C-114.7 35.5 -118.5 6.9 -111.9 -17.8C-105.3 -42.6 -88.2 -63.6 -67.8 -81C-47.4 -98.5 -23.7 -112.3 0.2 -112.6C24.1 -112.8 48.2 -99.5 64.4 -81.3Z" fill="none" stroke="#000000" stroke-width="5"></path></g><g transform="translate(1623 7727)"><path d="M59.5 -73C77.8 -55.5 93.8 -37.4 98.5 -16.5C103.3 4.5 96.7 28.3 85.3 50.3C73.8 72.4 57.5 92.6 35.7 102.4C14 112.2 -13.2 111.5 -38.1 103.1C-63 94.7 -85.8 78.7 -96.3 57.2C-106.9 35.7 -105.2 8.7 -97.9 -14.5C-90.5 -37.7 -77.4 -57.2 -60.1 -74.9C-42.9 -92.5 -21.4 -108.4 -0.4 -107.9C20.6 -107.3 41.2 -90.5 59.5 -73Z" fill="none" stroke="#000000" stroke-width="5"></path></g><g transform="translate(1907 1211)"><path d="M55.6 -66.5C71.2 -53.2 82.5 -34.8 85.5 -15.4C88.4 4 83.1 24.4 73 42.4C62.9 60.3 48 75.6 28.7 85.4C9.5 95.3 -14.2 99.6 -33.2 92.2C-52.3 84.9 -66.8 65.9 -76.4 45.8C-86.1 25.6 -91 4.4 -88.7 -16.9C-86.4 -38.1 -77 -59.3 -61 -72.5C-45 -85.8 -22.5 -91.1 -1.3 -89.6C20 -88.1 40 -79.8 55.6 -66.5Z" fill="none" stroke="#000000" stroke-width="5"></path></g><g transform="translate(1813 4534)"><path d="M65.2 -77.1C84 -61.9 98.4 -40.9 105.1 -16.5C111.9 7.9 111 35.8 98.8 57.1C86.5 78.3 62.9 93.1 36.9 103.6C10.8 114 -17.6 120.2 -42.4 112.8C-67.2 105.3 -88.5 84.4 -100.6 59.8C-112.7 35.3 -115.7 7.2 -109.5 -17.7C-103.2 -42.6 -87.6 -64.2 -67.8 -79.3C-48 -94.4 -24 -102.9 -0.4 -102.4C23.2 -101.9 46.4 -92.4 65.2 -77.1Z" fill="none" stroke="#000000" stroke-width="5"></path></g><g transform="translate(553 5596)"><path d="M65.5 -77.7C86.5 -60.4 106.3 -41.3 111.9 -18.4C117.5 4.5 109 31.3 94 51.5C79 71.7 57.5 85.3 33.6 95.2C9.8 105 -16.4 111.1 -37.2 103.2C-58 95.2 -73.3 73.2 -86.2 50.1C-99.2 27 -109.7 2.9 -105.7 -18.5C-101.7 -39.8 -83.2 -58.4 -63.1 -75.9C-43.1 -93.4 -21.6 -109.8 0.3 -110.2C22.2 -110.6 44.5 -95.1 65.5 -77.7Z" fill="none" stroke="#000000" stroke-width="5"></path></g><g transform="translate(618 3308)"><path d="M64.2 -75.5C82.3 -61.3 95.6 -40.2 101.2 -16.6C106.9 7 105 33.3 92.6 52.4C80.3 71.6 57.6 83.7 34.5 90.2C11.3 96.6 -12.2 97.4 -31.8 89.4C-51.3 81.4 -66.9 64.5 -80.4 44.7C-94 24.9 -105.5 2.1 -104 -20.4C-102.5 -42.9 -88 -65.2 -68.5 -79.2C-49 -93.1 -24.5 -98.8 -0.7 -97.9C23 -97.1 46.1 -89.7 64.2 -75.5Z" fill="none" stroke="#000000" stroke-width="5"></path></g><g transform="translate(1213 6414)"><path d="M82.8 -100.6C103.4 -81.3 113.6 -51.6 115.3 -23.1C116.9 5.3 110 32.4 96.8 56.5C83.6 80.5 64.1 101.4 39.3 112.5C14.4 123.5 -15.7 124.6 -40.7 114.4C-65.8 104.2 -85.9 82.7 -100.9 57.8C-115.9 32.8 -125.8 4.5 -120.8 -20.9C-115.8 -46.2 -95.9 -68.4 -73.3 -87.3C-50.7 -106.3 -25.4 -121.8 2.8 -125.2C31.1 -128.6 62.1 -119.8 82.8 -100.6Z" fill="none" stroke="#000000" stroke-width="5"></path></g><g transform="translate(98 2231)"><path d="M49.4 -60.3C64.5 -46.3 77.5 -31.1 83.5 -12.5C89.4 6.1 88.2 28.2 78.6 46C69.1 63.9 51.1 77.5 30.8 85.1C10.5 92.7 -12.2 94.3 -31.8 87.2C-51.4 80.2 -68 64.5 -78.6 45.6C-89.3 26.8 -93.9 4.7 -89.6 -15.1C-85.3 -34.9 -71.9 -52.3 -55.5 -66.1C-39 -80 -19.5 -90.2 -1.2 -88.8C17.2 -87.4 34.4 -74.4 49.4 -60.3Z" fill="none" stroke="#000000" stroke-width="5"></path></g><g transform="translate(99 5359)"><path d="M61.8 -70.4C80.4 -58 96 -38.8 100.6 -17.1C105.2 4.6 98.7 28.9 86.6 50.2C74.6 71.5 56.9 89.7 36.5 94.6C16.1 99.6 -7 91.3 -27 81C-46.9 70.8 -63.6 58.6 -75.3 41.8C-87 25 -93.8 3.6 -90.5 -16.1C-87.2 -35.8 -73.8 -53.9 -57.1 -66.7C-40.3 -79.5 -20.1 -87 0.7 -87.8C21.6 -88.7 43.1 -82.9 61.8 -70.4Z" fill="none" stroke="#000000" stroke-width="5"></path></g><g transform="translate(582 1096)"><path d="M70.6 -81.1C90.2 -67.8 103.7 -44.2 109.2 -18.4C114.7 7.3 112.2 35.3 99.5 57.5C86.7 79.6 63.8 96 38.1 105.8C12.4 115.7 -16.1 119.1 -41.1 110.9C-66.2 102.7 -87.7 82.9 -97.8 59.4C-107.9 35.9 -106.5 8.7 -100.2 -16C-93.9 -40.7 -82.6 -62.9 -65.1 -76.6C-47.6 -90.3 -23.8 -95.6 0.9 -96.6C25.5 -97.6 51.1 -94.5 70.6 -81.1Z" fill="none" stroke="#000000" stroke-width="5"></path></g><g transform="translate(147 3871)"><path d="M53.6 -63.9C70.7 -49.5 86.7 -33.8 91.6 -14.8C96.6 4.2 90.5 26.5 78.2 42.7C65.9 58.9 47.4 69.1 27.9 75.6C8.5 82.2 -11.8 85.2 -31.1 80.4C-50.3 75.5 -68.5 62.8 -80.3 45.1C-92.1 27.3 -97.5 4.6 -92.1 -14.5C-86.6 -33.6 -70.4 -49.1 -53.2 -63.4C-36.1 -77.8 -18 -91.1 0.1 -91.2C18.2 -91.4 36.5 -78.3 53.6 -63.9Z" fill="none" stroke="#000000" stroke-width="5"></path></g><g transform="translate(1557 6254)"><path d="M72.1 -88.6C94.1 -67.5 113.1 -45.4 121.2 -18.5C129.3 8.3 126.5 39.9 113 67.1C99.5 94.3 75.2 117.1 48 123.1C20.9 129.2 -9.2 118.4 -35.4 105.3C-61.6 92.2 -83.9 76.8 -97.5 55.3C-111 33.8 -115.8 6.3 -110.7 -19C-105.7 -44.3 -90.8 -67.4 -70.7 -88.8C-50.6 -110.3 -25.3 -130.1 -0.1 -129.9C25.1 -129.8 50.1 -109.7 72.1 -88.6Z" fill="none" stroke="#000000" stroke-width="5"></path></g><g transform="translate(535 7396)"><path d="M80.1 -94.4C103.4 -75.9 121.7 -50.3 128 -21.6C134.3 7.2 128.6 39.1 112.1 62C95.6 85 68.4 99.1 40 109.2C11.5 119.4 -18.2 125.5 -41.2 115.9C-64.3 106.4 -80.7 81.2 -92.2 55.8C-103.8 30.5 -110.6 4.9 -107.6 -20.2C-104.6 -45.2 -91.9 -69.8 -72.3 -88.9C-52.8 -108.1 -26.4 -121.9 1 -123.1C28.4 -124.3 56.8 -112.9 80.1 -94.4Z" fill="none" stroke="#000000" stroke-width="5"></path></g><g transform="translate(504 4953)"><path d="M73.8 -93.5C93.7 -71.2 106.7 -46.1 114.6 -17.8C122.4 10.5 125.1 42.2 112.8 66.5C100.4 90.8 72.9 107.7 42.9 119.3C12.8 130.9 -19.7 137.2 -50.2 129.7C-80.7 122.1 -109.1 100.8 -126.2 72.3C-143.3 43.9 -149 8.3 -140.2 -21.7C-131.3 -51.7 -107.9 -76.2 -82.1 -97.5C-56.3 -118.8 -28.1 -137.1 -0.6 -136.3C26.9 -135.6 53.8 -115.9 73.8 -93.5Z" fill="none" stroke="#000000" stroke-width="5"></path></g><g transform="translate(1652 4191)"><path d="M77.6 -90.4C98.8 -74.8 113 -48.6 114.6 -22.7C116.2 3.3 105.4 28.9 90.9 51.1C76.4 73.2 58.3 91.8 35.7 101.6C13.1 111.4 -14.1 112.3 -39 104.4C-64 96.5 -86.7 79.9 -102 57.1C-117.3 34.3 -125.2 5.4 -118.9 -19.3C-112.6 -44.1 -92.1 -64.8 -70 -80.2C-47.8 -95.7 -23.9 -106 2.2 -108.6C28.2 -111.2 56.5 -106.1 77.6 -90.4Z" fill="none" stroke="#000000" stroke-width="5"></path></g><g transform="translate(1176 3293)"><path d="M77.4 -90.5C97.3 -75.6 108.3 -48.3 109.2 -22.3C110.2 3.7 101.1 28.4 87.4 48.8C73.6 69.1 55.2 84.9 33.1 94.6C10.9 104.3 -14.8 107.9 -36.3 99.9C-57.7 92 -74.9 72.5 -87.4 50.6C-100 28.6 -108 4.1 -106.4 -21.2C-104.8 -46.4 -93.7 -72.4 -74.4 -87.3C-55 -102.3 -27.5 -106.1 0.6 -106.9C28.8 -107.6 57.6 -105.3 77.4 -90.5Z" fill="none" stroke="#000000" stroke-width="5"></path></g><g transform="translate(443 1617)"><path d="M62.7 -74.6C83.4 -57.4 103.7 -39.6 109.7 -17.6C115.7 4.4 107.2 30.7 93.2 52.7C79.2 74.7 59.6 92.4 37.3 99C15 105.5 -10.1 101 -30.6 90.7C-51.1 80.3 -67.1 64.1 -77.3 45.2C-87.6 26.3 -92.2 4.6 -90.9 -18.4C-89.6 -41.4 -82.6 -65.7 -66.4 -83.7C-50.3 -101.8 -25.2 -113.6 -2.1 -111.1C21 -108.6 42 -91.9 62.7 -74.6Z" fill="none" stroke="#000000" stroke-width="5"></path></g><g transform="translate(1722 5616)"><path d="M64.7 -78.5C83.3 -61.4 97.6 -40.6 104.6 -16.2C111.6 8.2 111.3 36.1 98.7 56.2C86.2 76.3 61.4 88.5 35.3 98.7C9.3 108.9 -18.1 117 -44 111.7C-69.9 106.3 -94.2 87.4 -104.5 63.4C-114.7 39.4 -110.9 10.2 -103.6 -16C-96.3 -42.3 -85.6 -65.8 -67.8 -83C-49.9 -100.3 -25 -111.2 -1 -110.1C23 -108.9 46 -95.6 64.7 -78.5Z" fill="none" stroke="#000000" stroke-width="5"></path></g><g transform="translate(763 3666)"><path d="M63.7 -76.7C80.4 -61.9 90.3 -39.8 96.3 -15.5C102.4 8.7 104.5 35.2 94.1 55.4C83.7 75.7 60.8 89.9 37.3 95.4C13.7 100.9 -10.4 97.8 -32 89.4C-53.7 80.9 -73 67.1 -85.7 48C-98.4 29 -104.7 4.7 -101.4 -18.6C-98.1 -41.8 -85.3 -64.1 -66.8 -78.6C-48.3 -93.2 -24.1 -100 -0.3 -99.6C23.5 -99.2 47 -91.6 63.7 -76.7Z" fill="none" stroke="#000000" stroke-width="5"></path></g><g transform="translate(1663 1996)"><path d="M77.9 -91.6C101.7 -72.8 122.3 -49 132.2 -19.4C142 10.1 141 45.5 125.2 71.7C109.3 97.9 78.7 114.9 48 121.6C17.3 128.4 -13.4 124.8 -42.8 115.2C-72.2 105.6 -100.3 89.8 -118.5 65.1C-136.7 40.4 -145.1 6.6 -140.3 -25.4C-135.4 -57.4 -117.3 -87.8 -91.7 -106.3C-66.1 -124.8 -33.1 -131.4 -3 -127.8C27 -124.2 54 -110.4 77.9 -91.6Z" fill="none" stroke="#000000" stroke-width="5"></path></g><g transform="translate(1357 5811)"><path d="M59.4 -70.7C75.2 -57.5 85.1 -37.1 92.6 -13.6C100 10 105 36.8 95.2 56C85.3 75.2 60.6 87 36.5 92.4C12.3 97.8 -11.3 97 -34.7 90.6C-58.1 84.2 -81.3 72.2 -93.5 53C-105.6 33.8 -106.8 7.4 -101.5 -17C-96.1 -41.5 -84.3 -63.9 -66.3 -76.7C-48.3 -89.5 -24.1 -92.8 -1.2 -91.4C21.8 -90 43.5 -83.9 59.4 -70.7Z" fill="none" stroke="#000000" stroke-width="5"></path></g><g transform="translate(920 4353)"><path d="M85.4 -101.3C105.9 -84.6 114.4 -53.1 116.6 -23.2C118.7 6.8 114.6 35.3 102.7 62.3C90.7 89.4 70.9 115 45.5 123.7C20 132.4 -11.2 124.3 -40.6 113C-70 101.6 -97.6 87 -111.9 63.8C-126.2 40.7 -127.1 9.1 -121.4 -21.1C-115.8 -51.4 -103.6 -80.2 -82.3 -96.7C-61 -113.2 -30.5 -117.5 1 -118.7C32.5 -119.9 64.9 -118 85.4 -101.3Z" fill="none" stroke="#000000" stroke-width="5"></path></g><g transform="translate(303 6029)"><path d="M76.3 -93.3C99.2 -71.6 118.6 -48 125.8 -20.2C133.1 7.6 128.3 39.4 113.8 66.7C99.2 94 75 116.6 45.9 128C16.9 139.3 -16.9 139.4 -47.5 128.9C-78 118.5 -105.3 97.5 -118.7 70.4C-132 43.4 -131.4 10.2 -122.5 -18.3C-113.5 -46.8 -96.3 -70.5 -74.5 -92.4C-52.7 -114.3 -26.3 -134.4 0.1 -134.6C26.6 -134.7 53.3 -115 76.3 -93.3Z" fill="none" stroke="#000000" stroke-width="5"></path></g><g transform="translate(898 2069)"><path d="M66.8 -81.4C82.8 -66.2 89.4 -41.6 94.6 -16.1C99.7 9.3 103.2 35.5 94 57C84.8 78.4 62.8 95.2 39.3 100.4C15.9 105.6 -9 99.3 -30.3 89C-51.7 78.8 -69.5 64.6 -83.3 45.7C-97 26.8 -106.8 3.1 -104.7 -20.2C-102.7 -43.5 -88.9 -66.5 -69.4 -81.1C-50 -95.8 -25 -102.1 0.2 -102.3C25.4 -102.6 50.8 -96.7 66.8 -81.4Z" fill="none" stroke="#000000" stroke-width="5"></path></g><g transform="translate(1433 388)"><path d="M66.3 -78.9C82.6 -65.4 89.9 -41.3 91.3 -18.3C92.7 4.6 88.1 26.4 77.9 45.8C67.7 65.2 51.9 82.2 32.6 88.9C13.3 95.7 -9.5 92.2 -32 85.2C-54.4 78.1 -76.6 67.6 -91.2 49.3C-105.7 31 -112.7 4.9 -106.5 -16.8C-100.3 -38.5 -80.9 -55.9 -60.9 -68.7C-41 -81.6 -20.5 -89.8 2.3 -92.6C25.1 -95.3 50.1 -92.4 66.3 -78.9Z" fill="none" stroke="#000000" stroke-width="5"></path></g><g transform="translate(1723 4931)"><path d="M68.4 -79.8C87.7 -65.3 101.8 -42.8 103.7 -20.1C105.6 2.7 95.2 25.8 81.8 45.4C68.3 65 51.8 81 31.4 90C11 98.9 -13.2 100.9 -34.8 93.8C-56.4 86.7 -75.3 70.6 -84.9 50.6C-94.6 30.6 -95 6.9 -89.5 -14.4C-84.1 -35.6 -72.8 -54.5 -56.9 -69.6C-41 -84.7 -20.5 -96.1 2 -98.5C24.5 -100.9 49 -94.3 68.4 -79.8Z" fill="none" stroke="#000000" stroke-width="5"></path></g><g transform="translate(855 3022)"><path d="M60.1 -69.9C77.3 -57.2 90.2 -37.7 96.3 -15.2C102.3 7.2 101.5 32.7 90.9 54C80.4 75.3 60.2 92.5 36.7 101.1C13.3 109.8 -13.3 109.8 -33 99C-52.7 88.3 -65.4 66.7 -74.2 45.7C-83 24.6 -87.8 4.2 -85 -15.5C-82.1 -35.2 -71.7 -54.1 -56.3 -67.1C-40.8 -80.2 -20.4 -87.4 0.5 -88C21.4 -88.7 42.9 -82.7 60.1 -69.9Z" fill="none" stroke="#000000" stroke-width="5"></path></g><g transform="translate(711 222)"><path d="M95.9 -108C122.9 -91.7 142.4 -60.1 145.8 -27.6C149.3 4.9 136.7 38.3 118.4 67C100.2 95.7 76.3 119.8 47.2 131C18.1 142.1 -16.2 140.4 -43.2 127C-70.2 113.6 -90 88.5 -108.1 60.7C-126.2 32.9 -142.6 2.4 -139 -25.6C-135.3 -53.6 -111.5 -79.1 -85 -95.4C-58.5 -111.7 -29.2 -118.9 2.6 -122C34.5 -125.1 69 -124.2 95.9 -108Z" fill="none" stroke="#000000" stroke-width="5"></path></g><g transform="translate(69 1195)"><path d="M58.4 -70.7C72.4 -57.8 78.4 -36.3 81.5 -14.9C84.6 6.5 84.9 27.9 76.4 45.5C67.9 63.2 50.6 77.2 30.4 85.2C10.3 93.2 -12.5 95.3 -30.5 87.2C-48.4 79.2 -61.3 61 -70.6 42.1C-79.9 23.2 -85.6 3.6 -84.6 -17.2C-83.7 -38 -76.1 -59.8 -60.9 -72.5C-45.7 -85.2 -22.8 -88.7 -0.3 -88.3C22.2 -87.9 44.3 -83.6 58.4 -70.7Z" fill="none" stroke="#000000" stroke-width="5"></path></g><g transform="translate(1247 822)"><path d="M71.8 -86.5C93.8 -67.1 112.9 -45.2 121.5 -18.2C130.1 8.8 128.2 40.9 114.3 67C100.4 93.2 74.5 113.4 46.1 121.6C17.6 129.8 -13.4 126 -39.7 114.2C-66 102.4 -87.5 82.7 -101.3 58.6C-115.1 34.5 -121.1 6 -116.6 -20.7C-112 -47.4 -96.8 -72.3 -75.6 -91.8C-54.4 -111.2 -27.2 -125.3 -1.1 -123.9C24.9 -122.6 49.8 -105.8 71.8 -86.5Z" fill="none" stroke="#000000" stroke-width="5"></path></g><g transform="translate(179 114)"><path d="M64.1 -75.8C82.2 -61.1 95.5 -40.2 98.6 -18C101.8 4.1 94.8 27.4 81.7 44.4C68.5 61.4 49.4 72.1 28.9 79.6C8.5 87.1 -13.2 91.4 -31.1 85C-49 78.6 -63.1 61.6 -72.4 43C-81.6 24.4 -85.9 4.3 -84.9 -17.2C-83.8 -38.7 -77.3 -61.5 -62.2 -76.7C-47.2 -91.9 -23.6 -99.5 -0.3 -99.1C23 -98.8 45.9 -90.4 64.1 -75.8Z" fill="none" stroke="#000000" stroke-width="5"></path></g><g transform="translate(659 7887)"><path d="M65.7 -79.1C85.4 -61.8 101.7 -41.3 108.2 -17.1C114.8 7 111.7 34.8 98.2 55.3C84.7 75.8 60.9 88.9 35.1 99.7C9.3 110.4 -18.5 118.8 -42.3 112C-66.2 105.2 -86 83.2 -97.7 58.6C-109.3 33.9 -112.7 6.7 -106.6 -17.2C-100.6 -41.2 -85 -62 -65.6 -79.3C-46.3 -96.7 -23.1 -110.7 -0.1 -110.6C23 -110.5 46.1 -96.4 65.7 -79.1Z" fill="none" stroke="#000000" stroke-width="5"></path></g><g transform="translate(780 7143)"><path d="M56 -67.4C72.2 -53.1 84.7 -35.1 87.4 -16C90 3.2 82.9 23.5 73.1 43.9C63.3 64.3 50.8 84.8 33.2 91.1C15.6 97.5 -7.1 89.7 -27.2 80C-47.2 70.4 -64.6 58.9 -78.3 41.9C-92 25 -101.9 2.6 -99 -18C-96 -38.7 -80.2 -57.7 -61.6 -71.6C-42.9 -85.4 -21.5 -94.1 -0.8 -93.1C19.9 -92.2 39.8 -81.7 56 -67.4Z" fill="none" stroke="#000000" stroke-width="5"></path></g><g transform="translate(1677 2944)"><path d="M85.3 -102C109.7 -81.2 128.1 -53.5 131.3 -24.7C134.6 4.1 122.8 34.1 105.2 57C87.5 80 64.1 95.8 37.8 106.5C11.6 117.1 -17.5 122.5 -43.1 114.8C-68.7 107 -90.8 86.1 -102.7 61.3C-114.6 36.6 -116.2 7.9 -113 -21.5C-109.7 -50.9 -101.5 -81.1 -81.9 -102.7C-62.2 -124.3 -31.1 -137.3 -0.3 -136.9C30.5 -136.5 60.9 -122.7 85.3 -102Z" fill="none" stroke="#000000" stroke-width="5"></path></g><g transform="translate(1865 468)"><path d="M70.4 -82.4C89.7 -67.7 102.7 -44.1 108.6 -18.1C114.5 7.9 113.2 36.3 101.3 59.9C89.3 83.5 66.7 102.3 40.1 113.3C13.6 124.2 -17 127.4 -40.3 116.4C-63.7 105.5 -80 80.5 -92.1 55.2C-104.3 29.9 -112.5 4.3 -109.7 -20.7C-106.9 -45.7 -93.1 -70.1 -73 -84.7C-52.9 -99.2 -26.5 -103.8 -0.4 -103.2C25.6 -102.7 51.1 -97.1 70.4 -82.4Z" fill="none" stroke="#000000" stroke-width="5"></path></g><g transform="translate(1583 746)"><path d="M71.7 -88.4C92.9 -67.6 110.1 -45 116.8 -18.9C123.5 7.3 119.6 37.1 105 59.1C90.5 81.2 65.3 95.6 37.6 107.6C9.9 119.6 -20.3 129.2 -44.1 120.7C-67.8 112.2 -85.1 85.7 -97.4 58.9C-109.7 32.1 -116.9 5.1 -112 -19.3C-107.1 -43.7 -90.2 -65.5 -69.5 -86.3C-48.8 -107.2 -24.4 -127.2 0.4 -127.7C25.2 -128.2 50.5 -109.2 71.7 -88.4Z" fill="none" stroke="#000000" stroke-width="5"></path></g><g transform="translate(102 3013)"><path d="M59.1 -67.8C76.8 -55.6 91.4 -37.2 96.9 -15.6C102.5 5.9 99 30.5 86.3 47.4C73.7 64.3 51.9 73.4 30.8 78.5C9.7 83.5 -10.7 84.4 -30.7 79.3C-50.7 74.2 -70.3 63.1 -81.9 45.9C-93.5 28.7 -97 5.5 -94.1 -17.5C-91.1 -40.6 -81.7 -63.4 -65 -75.7C-48.2 -87.9 -24.1 -89.7 -1.7 -87.6C20.7 -85.6 41.5 -79.9 59.1 -67.8Z" fill="none" stroke="#000000" stroke-width="5"></path></g><g transform="translate(338 6881)"><path d="M73.7 -92.6C91.5 -72.9 99.2 -45.9 101.7 -19.7C104.2 6.4 101.5 31.7 89.8 51.9C78.2 72 57.6 86.9 33.2 99.4C8.8 111.8 -19.6 121.7 -44.1 115.3C-68.6 108.9 -89.4 86.3 -101.1 60.9C-112.7 35.5 -115.3 7.3 -111.7 -20.8C-108.1 -49 -98.3 -77.2 -78.6 -96.6C-59 -116 -29.5 -126.6 -0.8 -125.7C27.9 -124.7 55.9 -112.3 73.7 -92.6Z" fill="none" stroke="#000000" stroke-width="5"></path></g><g transform="translate(1450 3684)"><path d="M85.7 -96.8C109.7 -81.9 126.8 -53.7 132 -23.4C137.2 6.9 130.4 39.1 114.7 66.2C99 93.2 74.4 115 45.7 125.4C17 135.8 -15.9 134.8 -42.2 122.4C-68.5 110 -88.2 86.2 -100.9 60.2C-113.6 34.2 -119.2 6.1 -114.3 -19.9C-109.5 -46 -94.2 -70 -73.4 -85.4C-52.6 -100.8 -26.3 -107.5 2.3 -110.2C30.8 -112.9 61.7 -111.6 85.7 -96.8Z" fill="none" stroke="#000000" stroke-width="5"></path></g><g transform="translate(479 6326)"><path d="M59.2 -71.1C73.9 -58.2 81 -36.9 83.3 -15.9C85.5 5.1 82.9 25.7 74 44.1C65 62.5 49.8 78.7 31.7 84C13.6 89.2 -7.3 83.4 -28.3 76.4C-49.2 69.3 -70.2 61 -80.4 45.4C-90.5 29.9 -89.9 7.1 -84.6 -13.6C-79.3 -34.2 -69.5 -52.6 -54.6 -65.5C-39.7 -78.3 -19.9 -85.6 1.2 -87C22.3 -88.4 44.5 -84 59.2 -71.1Z" fill="none" stroke="#000000" stroke-width="5"></path></g><g transform="translate(1885 1651)"><path d="M63.7 -74.5C82.1 -60.4 96.4 -40 102.1 -16.7C107.8 6.7 105 32.8 93 53.7C80.9 74.5 59.7 90.1 35.7 99.4C11.7 108.8 -15.1 111.9 -37.5 103.6C-60 95.2 -78 75.3 -89.5 52.9C-100.9 30.5 -105.7 5.5 -100.4 -16.5C-95 -38.4 -79.5 -57.4 -61.1 -71.4C-42.7 -85.5 -21.3 -94.6 0.6 -95.4C22.6 -96.1 45.2 -88.5 63.7 -74.5Z" fill="none" stroke="#000000" stroke-width="5"></path></g><g transform="translate(1226 1213)"><path d="M64.6 -78.2C80.4 -63.7 87.6 -40.2 88.2 -18.2C88.9 3.7 83.1 24.2 72.4 40.9C61.7 57.6 46.1 70.7 27.2 79.7C8.3 88.8 -13.9 93.9 -31.9 87.4C-49.9 81 -63.9 62.9 -74 43.6C-84.1 24.2 -90.4 3.6 -88.6 -17.2C-86.8 -38 -76.8 -58.9 -60.7 -73.3C-44.6 -87.8 -22.3 -95.8 1 -97C24.4 -98.3 48.8 -92.7 64.6 -78.2Z" fill="none" stroke="#000000" stroke-width="5"></path></g><g transform="translate(1903 6090)"><path d="M73.1 -84.3C93.1 -70.4 106.5 -45.8 108.8 -21C111 3.8 102.1 28.8 88.8 50.9C75.6 73 58.1 92.3 37.2 98.1C16.3 103.9 -7.9 96.2 -29.4 86C-50.9 75.9 -69.5 63.4 -81.4 45.7C-93.3 27.9 -98.4 4.8 -95.4 -17.7C-92.5 -40.2 -81.6 -62.2 -64.3 -76.6C-47.1 -91 -23.5 -97.9 1.5 -99.7C26.6 -101.5 53.1 -98.3 73.1 -84.3Z" fill="none" stroke="#000000" stroke-width="5"></path></g><g transform="translate(193 2579)"><path d="M77.3 -90.5C96.1 -76.3 104.5 -48.1 106 -21.4C107.5 5.3 102.1 30.6 89.7 51.6C77.4 72.7 58 89.5 34.3 101.1C10.6 112.7 -17.5 119.1 -42.3 111.9C-67.1 104.8 -88.6 84.2 -99 60.1C-109.4 36 -108.8 8.5 -102.9 -17C-97 -42.4 -85.9 -65.8 -67.9 -80.2C-49.9 -94.6 -24.9 -100 2.1 -102.5C29.2 -105.1 58.4 -104.8 77.3 -90.5Z" fill="none" stroke="#000000" stroke-width="5"></path></g><g transform="translate(377 481)"><path d="M72.2 -86.5C90.2 -71.1 98.8 -45 104.1 -17.9C109.5 9.2 111.4 37.3 101.1 61.2C90.7 85.1 67.9 104.6 42.8 110.8C17.7 116.9 -9.7 109.6 -32.6 97.7C-55.4 85.9 -73.6 69.4 -86.7 49C-99.8 28.5 -107.9 4 -106 -20.7C-104.1 -45.5 -92.2 -70.6 -72.8 -85.7C-53.5 -100.8 -26.7 -106.1 0.2 -106.3C27.2 -106.6 54.3 -101.8 72.2 -86.5Z" fill="none" stroke="#000000" stroke-width="5"></path></g><g transform="translate(1504 2423)"><path d="M62.2 -77.1C79.9 -59.2 93.1 -39 97.7 -16.7C102.2 5.6 98 29.9 86.2 49.2C74.4 68.6 54.9 83 33.4 90.1C11.9 97.2 -11.6 96.9 -31.4 88.7C-51.1 80.4 -67.1 64.2 -77.6 45.2C-88.1 26.2 -93.2 4.4 -92.3 -19C-91.4 -42.4 -84.6 -67.5 -68.2 -85.7C-51.8 -103.9 -25.9 -115.1 -1.8 -112.9C22.2 -110.7 44.4 -95.1 62.2 -77.1Z" fill="none" stroke="#000000" stroke-width="5"></path></g><g transform="translate(981 5287)"><path d="M77.8 -95.8C97.8 -75.9 108.9 -48.5 114.8 -19.6C120.7 9.4 121.4 39.9 108.2 62.1C94.9 84.2 67.8 97.9 39.9 107C11.9 116.1 -16.8 120.6 -43.7 113.6C-70.6 106.6 -95.8 88.2 -107.8 63.9C-119.9 39.6 -118.9 9.4 -112.8 -19C-106.7 -47.4 -95.5 -74 -75.9 -93.9C-56.3 -113.9 -28.1 -127.2 0.4 -127.7C28.9 -128.1 57.8 -115.7 77.8 -95.8Z" fill="none" stroke="#000000" stroke-width="5"></path></g><g transform="translate(1268 4031)"><path d="M52.8 -63.9C68.3 -49.9 80.6 -33.2 86.2 -13.4C91.9 6.4 90.9 29.1 80.2 45.2C69.6 61.3 49.4 70.7 29.2 76.3C9.1 81.9 -11 83.7 -27.9 77.3C-44.7 70.8 -58.3 56.2 -66.7 39.5C-75.1 22.9 -78.3 4.2 -75.1 -13.1C-71.9 -30.4 -62.2 -46.5 -48.6 -60.7C-35 -75 -17.5 -87.5 0.6 -88.2C18.7 -88.9 37.3 -77.8 52.8 -63.9Z" fill="none" stroke="#000000" stroke-width="5"></path></g><g transform="translate(123 4996)"><path d="M65.7 -78.3C85.1 -62 100.9 -41.3 108.6 -16.4C116.3 8.5 116 37.6 103.2 59.4C90.4 81.1 65.2 95.5 38.8 104.1C12.3 112.7 -15.4 115.5 -40.9 108C-66.3 100.6 -89.6 82.9 -103.2 59.5C-116.8 36.1 -120.8 7.1 -115.3 -19.7C-109.9 -46.5 -95 -71 -74.2 -87.1C-53.4 -103.2 -26.7 -111 -1.8 -108.9C23.1 -106.8 46.2 -94.7 65.7 -78.3Z" fill="none" stroke="#000000" stroke-width="5"></path></g><g transform="translate(878 5908)"><path d="M84.7 -102.8C109.1 -80.6 127.6 -53.2 130.6 -24.7C133.6 3.8 121.2 33.3 105 59.9C88.8 86.6 68.8 110.3 42.6 122.2C16.3 134 -16.2 133.9 -43.5 122.6C-70.8 111.3 -93 88.9 -106 62.9C-119 36.9 -122.8 7.3 -120.6 -24.1C-118.4 -55.4 -110.2 -88.5 -89.1 -111.3C-68 -134.1 -34 -146.7 -1.9 -144.4C30.2 -142.2 60.4 -125.1 84.7 -102.8Z" fill="none" stroke="#000000" stroke-width="5"></path></g><g transform="translate(56 720)"><path d="M64.6 -79.2C80.3 -63.8 87.3 -40.2 91.6 -16.1C95.8 7.9 97.3 32.5 87.3 51C77.3 69.4 55.8 81.8 34.2 86.4C12.6 91 -9.2 87.9 -29.1 80.4C-49.1 73 -67.3 61.2 -78.7 44.1C-90.1 27.1 -94.8 4.8 -92.2 -17.4C-89.6 -39.5 -79.8 -61.5 -63.3 -76.7C-46.7 -91.9 -23.3 -100.3 0.6 -101C24.5 -101.7 48.9 -94.6 64.6 -79.2Z" fill="none" stroke="#000000" stroke-width="5"></path></g><g transform="translate(618 6658)"><path d="M51 -60.3C66.3 -48 79 -32.1 82.5 -14.3C85.9 3.5 80.1 23.2 69.9 39.9C59.7 56.6 45.1 70.4 26.8 79.6C8.5 88.8 -13.6 93.4 -30.6 86.3C-47.6 79.2 -59.6 60.2 -70.2 40.9C-80.9 21.7 -90.3 2 -87.7 -15.9C-85.1 -33.9 -70.5 -50.3 -53.9 -62.4C-37.3 -74.5 -18.6 -82.3 -0.4 -81.8C17.9 -81.4 35.7 -72.6 51 -60.3Z" fill="none" stroke="#000000" stroke-width="5"></path></g><g transform="translate(176 7730)"><path d="M70.2 -82.1C89.9 -67 104.2 -44 108.7 -19.1C113.1 5.8 107.7 32.4 94.5 54C81.4 75.5 60.4 92 36.6 100.9C12.7 109.7 -14 110.9 -35.3 101.3C-56.5 91.7 -72.2 71.2 -81.2 49.7C-90.2 28.3 -92.5 5.8 -88.1 -14.9C-83.7 -35.6 -72.6 -54.5 -56.9 -70.3C-41.1 -86 -20.5 -98.7 2.3 -101.5C25.2 -104.2 50.4 -97.2 70.2 -82.1Z" fill="none" stroke="#000000" stroke-width="5"></path></g><g transform="translate(1761 7235)"><path d="M58 -69.9C71.9 -57.5 77.5 -36.1 78.3 -16.1C79 3.9 75 22.4 65.9 37.9C56.8 53.5 42.7 66 26 72.6C9.2 79.2 -10.1 80 -27.1 74C-44.1 68 -58.9 55.3 -67.4 39.4C-75.9 23.6 -78.2 4.7 -75.7 -13.9C-73.1 -32.6 -65.7 -51 -52.2 -63.5C-38.8 -75.9 -19.4 -82.5 1.3 -84.1C22.1 -85.7 44.2 -82.3 58 -69.9Z" fill="none" stroke="#000000" stroke-width="5"></path></g><g transform="translate(135 6493)"><path d="M75.5 -91.7C95.9 -72.8 109.1 -47.2 113.7 -20.2C118.3 6.8 114.2 35.2 102.1 61.4C89.9 87.6 69.6 111.7 43.8 121.5C18 131.4 -13.3 127.1 -41.9 116.3C-70.5 105.4 -96.4 88 -110.3 63.7C-124.2 39.5 -126.2 8.4 -119 -19C-111.7 -46.4 -95.3 -70.1 -73.9 -88.9C-52.5 -107.6 -26.3 -121.3 0.6 -122C27.5 -122.8 55.1 -110.6 75.5 -91.7Z" fill="none" stroke="#000000" stroke-width="5"></path></g></g></svg>