<svg id="visual" viewBox="0 0 900 200" width="900" height="200" xmlns="http://www.w3.org/2000/svg" xmlns:xlink="http://www.w3.org/1999/xlink" version="1.1"><path d="M0 84L18.8 82.3C37.7 80.7 75.3 77.3 112.8 76.8C150.3 76.3 187.7 78.7 225.2 77.2C262.7 75.7 300.3 70.3 337.8 69.2C375.3 68 412.7 71 450.2 70.8C487.7 70.7 525.3 67.3 562.8 64.5C600.3 61.7 637.7 59.3 675.2 61.8C712.7 64.3 750.3 71.7 787.8 78.2C825.3 84.7 862.7 90.3 881.3 93.2L900 96L900 201L881.3 201C862.7 201 825.3 201 787.8 201C750.3 201 712.7 201 675.2 201C637.7 201 600.3 201 562.8 201C525.3 201 487.7 201 450.2 201C412.7 201 375.3 201 337.8 201C300.3 201 262.7 201 225.2 201C187.7 201 150.3 201 112.8 201C75.3 201 37.7 201 18.8 201L0 201Z" fill="#a2d2ff"></path><path d="M0 90L18.8 89.8C37.7 89.7 75.3 89.3 112.8 91.3C150.3 93.3 187.7 97.7 225.2 102.5C262.7 107.3 300.3 112.7 337.8 113C375.3 113.3 412.7 108.7 450.2 107.3C487.7 106 525.3 108 562.8 109.7C600.3 111.3 637.7 112.7 675.2 113.5C712.7 114.3 750.3 114.7 787.8 114C825.3 113.3 862.7 111.7 881.3 110.8L900 110L900 201L881.3 201C862.7 201 825.3 201 787.8 201C750.3 201 712.7 201 675.2 201C637.7 201 600.3 201 562.8 201C525.3 201 487.7 201 450.2 201C412.7 201 375.3 201 337.8 201C300.3 201 262.7 201 225.2 201C187.7 201 150.3 201 112.8 201C75.3 201 37.7 201 18.8 201L0 201Z" fill="#c1ceff"></path><path d="M0 132L18.8 128.2C37.7 124.3 75.3 116.7 112.8 112.8C150.3 109 187.7 109 225.2 112.2C262.7 115.3 300.3 121.7 337.8 124.8C375.3 128 412.7 128 450.2 127.2C487.7 126.3 525.3 124.7 562.8 120.7C600.3 116.7 637.7 110.3 675.2 111.5C712.7 112.7 750.3 121.3 787.8 125.7C825.3 130 862.7 130 881.3 130L900 130L900 201L881.3 201C862.7 201 825.3 201 787.8 201C750.3 201 712.7 201 675.2 201C637.7 201 600.3 201 562.8 201C525.3 201 487.7 201 450.2 201C412.7 201 375.3 201 337.8 201C300.3 201 262.7 201 225.2 201C187.7 201 150.3 201 112.8 201C75.3 201 37.7 201 18.8 201L0 201Z" fill="#dccaf8"></path><path d="M0 129L18.8 131.5C37.7 134 75.3 139 112.8 141.8C150.3 144.7 187.7 145.3 225.2 145C262.7 144.7 300.3 143.3 337.8 144.5C375.3 145.7 412.7 149.3 450.2 148.5C487.7 147.7 525.3 142.3 562.8 143.5C600.3 144.7 637.7 152.3 675.2 151C712.7 149.7 750.3 139.3 787.8 135.2C825.3 131 862.7 133 881.3 134L900 135L900 201L881.3 201C862.7 201 825.3 201 787.8 201C750.3 201 712.7 201 675.2 201C637.7 201 600.3 201 562.8 201C525.3 201 487.7 201 450.2 201C412.7 201 375.3 201 337.8 201C300.3 201 262.7 201 225.2 201C187.7 201 150.3 201 112.8 201C75.3 201 37.7 201 18.8 201L0 201Z" fill="#f1c8ec"></path><path d="M0 178L18.8 178.3C37.7 178.7 75.3 179.3 112.8 176.8C150.3 174.3 187.7 168.7 225.2 165.3C262.7 162 300.3 161 337.8 161C375.3 161 412.7 162 450.2 163C487.7 164 525.3 165 562.8 166.3C600.3 167.7 637.7 169.3 675.2 167.8C712.7 166.3 750.3 161.7 787.8 161C825.3 160.3 862.7 163.7 881.3 165.3L900 167L900 201L881.3 201C862.7 201 825.3 201 787.8 201C750.3 201 712.7 201 675.2 201C637.7 201 600.3 201 562.8 201C525.3 201 487.7 201 450.2 201C412.7 201 375.3 201 337.8 201C300.3 201 262.7 201 225.2 201C187.7 201 150.3 201 112.8 201C75.3 201 37.7 201 18.8 201L0 201Z" fill="#ffc8dd"></path></svg>