<svg id="visual" viewBox="0 0 900 200" width="900" height="200" xmlns="http://www.w3.org/2000/svg" xmlns:xlink="http://www.w3.org/1999/xlink" version="1.1"><path d="M0 141L18.8 139.3C37.7 137.7 75.3 134.3 112.8 127.5C150.3 120.7 187.7 110.3 225.2 106.2C262.7 102 300.3 104 337.8 108.7C375.3 113.3 412.7 120.7 450.2 121.2C487.7 121.7 525.3 115.3 562.8 112.7C600.3 110 637.7 111 675.2 116.7C712.7 122.3 750.3 132.7 787.8 136.7C825.3 140.7 862.7 138.3 881.3 137.2L900 136L900 0L881.3 0C862.7 0 825.3 0 787.8 0C750.3 0 712.7 0 675.2 0C637.7 0 600.3 0 562.8 0C525.3 0 487.7 0 450.2 0C412.7 0 375.3 0 337.8 0C300.3 0 262.7 0 225.2 0C187.7 0 150.3 0 112.8 0C75.3 0 37.7 0 18.8 0L0 0Z" fill="#a2d2ff"></path><path d="M0 120L18.8 118.8C37.7 117.7 75.3 115.3 112.8 110C150.3 104.7 187.7 96.3 225.2 92.3C262.7 88.3 300.3 88.7 337.8 87.2C375.3 85.7 412.7 82.3 450.2 87C487.7 91.7 525.3 104.3 562.8 110C600.3 115.7 637.7 114.3 675.2 109.7C712.7 105 750.3 97 787.8 95.5C825.3 94 862.7 99 881.3 101.5L900 104L900 0L881.3 0C862.7 0 825.3 0 787.8 0C750.3 0 712.7 0 675.2 0C637.7 0 600.3 0 562.8 0C525.3 0 487.7 0 450.2 0C412.7 0 375.3 0 337.8 0C300.3 0 262.7 0 225.2 0C187.7 0 150.3 0 112.8 0C75.3 0 37.7 0 18.8 0L0 0Z" fill="#c1ceff"></path><path d="M0 87L18.8 88.2C37.7 89.3 75.3 91.7 112.8 88.5C150.3 85.3 187.7 76.7 225.2 72C262.7 67.3 300.3 66.7 337.8 64.8C375.3 63 412.7 60 450.2 63C487.7 66 525.3 75 562.8 80.3C600.3 85.7 637.7 87.3 675.2 83.5C712.7 79.7 750.3 70.3 787.8 64.8C825.3 59.3 862.7 57.7 881.3 56.8L900 56L900 0L881.3 0C862.7 0 825.3 0 787.8 0C750.3 0 712.7 0 675.2 0C637.7 0 600.3 0 562.8 0C525.3 0 487.7 0 450.2 0C412.7 0 375.3 0 337.8 0C300.3 0 262.7 0 225.2 0C187.7 0 150.3 0 112.8 0C75.3 0 37.7 0 18.8 0L0 0Z" fill="#dccaf8"></path><path d="M0 64L18.8 63.2C37.7 62.3 75.3 60.7 112.8 59.2C150.3 57.7 187.7 56.3 225.2 58C262.7 59.7 300.3 64.3 337.8 62.8C375.3 61.3 412.7 53.7 450.2 52.2C487.7 50.7 525.3 55.3 562.8 57.2C600.3 59 637.7 58 675.2 57.5C712.7 57 750.3 57 787.8 57.3C825.3 57.7 862.7 58.3 881.3 58.7L900 59L900 0L881.3 0C862.7 0 825.3 0 787.8 0C750.3 0 712.7 0 675.2 0C637.7 0 600.3 0 562.8 0C525.3 0 487.7 0 450.2 0C412.7 0 375.3 0 337.8 0C300.3 0 262.7 0 225.2 0C187.7 0 150.3 0 112.8 0C75.3 0 37.7 0 18.8 0L0 0Z" fill="#f1c8ec"></path><path d="M0 40L18.8 37.3C37.7 34.7 75.3 29.3 112.8 28C150.3 26.7 187.7 29.3 225.2 32C262.7 34.7 300.3 37.3 337.8 35.5C375.3 33.7 412.7 27.3 450.2 28C487.7 28.7 525.3 36.3 562.8 38.2C600.3 40 637.7 36 675.2 32C712.7 28 750.3 24 787.8 23.7C825.3 23.3 862.7 26.7 881.3 28.3L900 30L900 0L881.3 0C862.7 0 825.3 0 787.8 0C750.3 0 712.7 0 675.2 0C637.7 0 600.3 0 562.8 0C525.3 0 487.7 0 450.2 0C412.7 0 375.3 0 337.8 0C300.3 0 262.7 0 225.2 0C187.7 0 150.3 0 112.8 0C75.3 0 37.7 0 18.8 0L0 0Z" fill="#ffc8dd"></path></svg>